<?xml version="1.0" encoding="UTF-8" standalone="no"?>
<!-- Created with Inkscape (http://www.inkscape.org/) -->

<svg
   xmlns:dc="http://purl.org/dc/elements/1.1/"
   xmlns:cc="http://creativecommons.org/ns#"
   xmlns:rdf="http://www.w3.org/1999/02/22-rdf-syntax-ns#"
   xmlns:svg="http://www.w3.org/2000/svg"
   xmlns="http://www.w3.org/2000/svg"
   xmlns:sodipodi="http://sodipodi.sourceforge.net/DTD/sodipodi-0.dtd"
   xmlns:inkscape="http://www.inkscape.org/namespaces/inkscape"
   width="76.963211"
   height="200"
   id="svg2"
   sodipodi:version="0.32"
   inkscape:version="0.48.2 r9819"
   version="1.0"
   sodipodi:docname="C Llpd-½.svg"
   inkscape:output_extension="org.inkscape.output.svg.inkscape">
  <defs
     id="defs4" />
  <sodipodi:namedview
     id="base"
     pagecolor="#ffffff"
     bordercolor="#666666"
     borderopacity="1.0"
     inkscape:pageopacity="0.0"
     inkscape:pageshadow="2"
     inkscape:zoom="1.3275862"
     inkscape:cx="34.739414"
     inkscape:cy="119.35996"
     inkscape:document-units="px"
     inkscape:current-layer="layer1"
     showgrid="false"
     inkscape:window-width="1024"
     inkscape:window-height="719"
     inkscape:window-x="-4"
     inkscape:window-y="-4"
     fit-margin-left="6"
     fit-margin-top="6"
     fit-margin-right="6"
     fit-margin-bottom="6"
     borderlayer="true"
     showborder="true"
     inkscape:window-maximized="1" />
  <metadata
     id="metadata7">
    <rdf:RDF>
      <cc:Work
         rdf:about="">
        <dc:format>image/svg+xml</dc:format>
        <dc:type
           rdf:resource="http://purl.org/dc/dcmitype/StillImage" />
        <dc:title></dc:title>
      </cc:Work>
    </rdf:RDF>
  </metadata>
  <g
     inkscape:label="Calque 1"
     inkscape:groupmode="layer"
     id="layer1"
     transform="translate(-5.3969506,-70.87545)">
    <path
       style="fill:#000000"
       d="m 68.127504,264.49928 c -0.478808,-0.19387 -2.947079,-3.01177 -5.485045,-6.262 -2.87886,-3.68679 -6.959104,-7.73635 -10.848091,-10.76648 -22.338102,-17.40491 -29.071897,-23.45747 -33.73141,-30.31891 -5.869037,-8.64254 -7.87251,-18.09848 -5.970977,-28.18166 2.796006,-14.82628 12.013074,-24.93954 24.235903,-26.59242 7.15555,-0.96763 19.712388,2.43157 26.898878,7.28167 l 3.285527,2.21738 0,-46.00644 0,-46.00643 1.519682,-1.631186 c 1.214864,-1.304004 2.013528,-1.551045 3.981793,-1.23164 1.354161,0.219751 2.89734,0.97342 3.429281,1.674821 1.170171,1.542956 1.159146,0.15312 0.31452,39.627225 -0.376117,17.57798 -1.005267,51.77513 -1.398112,75.99368 -0.946245,58.33479 -1.325524,68.30525 -2.64869,69.62841 -1.054882,1.05488 -2.015504,1.20876 -3.583259,0.57398 z m -1.931106,-27.00037 c 0.901363,-8.41682 -0.10833,-42.7111 -1.377454,-46.78526 -1.684298,-5.40697 -4.999163,-9.94103 -8.510733,-11.64095 -6.338637,-3.06848 -12.104085,-1.29648 -15.841794,4.86895 -6.535387,10.78027 -4.053063,26.4838 6.35214,40.18454 3.64509,4.79956 16.961045,18.11064 18.117275,18.11064 0.414247,0 0.981502,-2.13207 1.260566,-4.73792 z"
       id="path2461"
       inkscape:connector-curvature="0" />
  </g>
</svg>
